<svg width="16" height="16" viewBox="0 0 16 16" fill="none" xmlns="http://www.w3.org/2000/svg">
<path d="M14.0461 3.48582C14.1823 3.63065 14.2555 3.82367 14.2495 4.02245C14.2435 4.22123 14.1588 4.40948 14.0141 4.54582L6.08406 12.0198C5.9224 12.1721 5.70759 12.255 5.48558 12.2509C5.26356 12.2468 5.05197 12.1559 4.89606 11.9978L2.21606 9.27782C2.14509 9.20809 2.0887 9.12494 2.05019 9.0332C2.01167 8.94147 1.99179 8.84299 1.9917 8.74349C1.99161 8.644 2.01132 8.54548 2.04968 8.45368C2.08804 8.36188 2.14428 8.27863 2.21513 8.20878C2.28598 8.13892 2.37002 8.08387 2.46235 8.04681C2.55469 8.00975 2.65347 7.99144 2.75296 7.99293C2.85244 7.99442 2.95063 8.0157 3.04181 8.05551C3.13299 8.09532 3.21534 8.15288 3.28406 8.22482L5.51806 10.4918L12.9861 3.45382C13.1309 3.31753 13.3239 3.24434 13.5227 3.25034C13.7215 3.25634 13.9097 3.34105 14.0461 3.48582Z" fill="#EF7A0E"/>
</svg>
