<svg width="25" height="24" viewBox="0 0 25 24" fill="none" xmlns="http://www.w3.org/2000/svg">
<path d="M11.6262 2C10.1344 2 8.70364 2.59263 7.64875 3.64752C6.59385 4.70242 6.00122 6.13316 6.00122 7.625C6.00122 10.7323 11.6262 21.215 11.6262 21.215C11.6262 21.215 17.2512 10.733 17.2512 7.625C17.2512 6.13316 16.6586 4.70242 15.6037 3.64752C14.5488 2.59263 13.1181 2 11.6262 2ZM11.6262 10.313C10.9133 10.313 10.2296 10.0298 9.72552 9.5257C9.22142 9.02161 8.93822 8.3379 8.93822 7.625C8.93822 6.9121 9.22142 6.22839 9.72552 5.7243C10.2296 5.2202 10.9133 4.937 11.6262 4.937C12.3391 4.937 13.0228 5.2202 13.5269 5.7243C14.031 6.22839 14.3142 6.9121 14.3142 7.625C14.3142 8.3379 14.031 9.02161 13.5269 9.5257C13.0228 10.0298 12.3391 10.313 11.6262 10.313Z" fill="white"/>
</svg>
