<svg width="44" height="44" viewBox="0 0 44 44" fill="none" xmlns="http://www.w3.org/2000/svg">
<g clip-path="url(#clip0_2277_1133)">
<path d="M6.84222 12.2757C7.24723 12.2757 7.57555 11.9474 7.57555 11.5424C7.57555 11.1374 7.24723 10.8091 6.84222 10.8091C6.43721 10.8091 6.10889 11.1374 6.10889 11.5424C6.10889 11.9474 6.43721 12.2757 6.84222 12.2757Z" fill="#EF7A0E"/>
<path d="M11.7333 12.2757C12.1383 12.2757 12.4667 11.9474 12.4667 11.5424C12.4667 11.1374 12.1383 10.8091 11.7333 10.8091C11.3283 10.8091 11 11.1374 11 11.5424C11 11.9474 11.3283 12.2757 11.7333 12.2757Z" fill="#EF7A0E"/>
<path d="M9.29144 12.2757C9.69645 12.2757 10.0248 11.9474 10.0248 11.5424C10.0248 11.1374 9.69645 10.8091 9.29144 10.8091C8.88643 10.8091 8.55811 11.1374 8.55811 11.5424C8.55811 11.9474 8.88643 12.2757 9.29144 12.2757Z" fill="#EF7A0E"/>
<path d="M14.6666 22.1831L16.8666 19.9831C17.0047 19.845 17.0823 19.6577 17.0823 19.4624C17.0823 19.2671 17.0047 19.0798 16.8666 18.9417C16.7285 18.8037 16.5412 18.7261 16.3459 18.7261C16.1507 18.7261 15.9634 18.8037 15.8253 18.9417L13.0973 21.6771C12.9607 21.8145 12.884 22.0003 12.884 22.1941C12.884 22.3878 12.9607 22.5737 13.0973 22.7111L15.8253 25.4464C15.8935 25.5151 15.9746 25.5697 16.0639 25.6069C16.1533 25.6442 16.2491 25.6633 16.3459 25.6633C16.4428 25.6633 16.5386 25.6442 16.628 25.6069C16.7173 25.5697 16.7984 25.5151 16.8666 25.4464C17.0032 25.309 17.0799 25.1231 17.0799 24.9294C17.0799 24.7357 17.0032 24.5498 16.8666 24.4124L14.6666 22.1831Z" fill="#EF7A0E"/>
<path d="M25.1684 25.4319C25.3058 25.5685 25.4917 25.6452 25.6854 25.6452C25.8791 25.6452 26.065 25.5685 26.2024 25.4319L28.9377 22.7333C29.0743 22.5959 29.151 22.41 29.151 22.2163C29.151 22.0225 29.0743 21.8367 28.9377 21.6993L26.2024 18.9639C26.0643 18.8268 25.8774 18.7502 25.6828 18.7509C25.4882 18.7515 25.3019 18.8295 25.1647 18.9676C25.0276 19.1057 24.951 19.2926 24.9517 19.4872C24.9524 19.6818 25.0303 19.8681 25.1684 20.0053L27.3684 22.2053L25.1684 24.4053C25.034 24.5423 24.9588 24.7266 24.9588 24.9186C24.9588 25.1105 25.034 25.2949 25.1684 25.4319Z" fill="#EF7A0E"/>
<path d="M22.7331 19.1769C22.6494 19.1284 22.5569 19.097 22.461 19.0844C22.3651 19.0718 22.2677 19.0783 22.1743 19.1035C22.0809 19.1287 21.9934 19.1722 21.9169 19.2313C21.8404 19.2905 21.7763 19.3642 21.7284 19.4482L19.0224 24.2002C18.9694 24.2837 18.9337 24.377 18.9177 24.4746C18.9016 24.5722 18.9055 24.6721 18.929 24.7681C18.9525 24.8642 18.9953 24.9545 19.0546 25.0336C19.1139 25.1128 19.1887 25.1791 19.2743 25.2286C19.3599 25.2781 19.4547 25.3097 19.5529 25.3216C19.651 25.3336 19.7506 25.3255 19.8456 25.298C19.9406 25.2704 20.029 25.2239 20.1056 25.1613C20.1821 25.0987 20.2452 25.0212 20.2911 24.9336L23.0264 20.2036C23.0776 20.1177 23.1106 20.0222 23.1236 19.923C23.1365 19.8238 23.1289 19.7231 23.1015 19.6269C23.074 19.5307 23.0271 19.4412 22.9638 19.3638C22.9004 19.2864 22.8219 19.2228 22.7331 19.1769Z" fill="#EF7A0E"/>
<path d="M40.9638 29.3335C40.9206 29.3332 40.8784 29.3197 40.8431 29.2948C40.8077 29.2699 40.7808 29.2348 40.7658 29.1942C40.474 28.4266 40.0605 27.711 39.5412 27.0748C39.5166 27.0393 39.5034 26.9971 39.5034 26.9538C39.5034 26.9106 39.5166 26.8684 39.5412 26.8328C39.7645 26.4457 39.8251 25.9858 39.7096 25.554C39.5941 25.1223 39.312 24.7541 38.9252 24.5302L38.3752 24.2002V10.8095C38.3752 10.226 38.1434 9.66644 37.7308 9.25386C37.3182 8.84128 36.7586 8.6095 36.1752 8.6095H5.8665C5.28303 8.6095 4.72345 8.84128 4.31087 9.25386C3.89829 9.66644 3.6665 10.226 3.6665 10.8095V29.3922C3.66843 29.8447 3.84907 30.2782 4.16909 30.5982C4.48911 30.9183 4.9226 31.0989 5.37517 31.1008H15.3998L14.6665 33.8142H13.6912C12.9769 33.8147 12.2837 34.0559 11.7235 34.4991C11.1632 34.9422 10.7688 35.5612 10.6038 36.2562H8.79984C8.60534 36.2562 8.41882 36.3334 8.28129 36.471C8.14377 36.6085 8.0665 36.795 8.0665 36.9895C8.0665 37.184 8.14377 37.3705 8.28129 37.508C8.41882 37.6456 8.60534 37.7228 8.79984 37.7228H27.4778C27.4654 37.898 27.4828 38.0741 27.5292 38.2435C27.5842 38.4586 27.682 38.6604 27.8168 38.8368C27.9516 39.0133 28.1207 39.1606 28.3138 39.2702L29.8612 40.1648C30.0533 40.2751 30.2652 40.3465 30.4849 40.3748C30.7047 40.4032 30.9278 40.388 31.1416 40.3301C31.3554 40.2723 31.5558 40.1728 31.7312 40.0375C31.9066 39.9022 32.0536 39.7336 32.1638 39.5415C32.1876 39.5041 32.2218 39.4744 32.2622 39.4562C32.3026 39.438 32.3474 39.4319 32.3912 39.4388C33.1967 39.5782 34.0203 39.5782 34.8258 39.4388C34.8704 39.4316 34.9162 39.4383 34.9569 39.458C34.9975 39.4776 35.0312 39.5094 35.0532 39.5488C35.2026 39.8048 35.4169 40.0168 35.6744 40.1635C35.9319 40.3103 36.2235 40.3866 36.5198 40.3848C36.8155 40.3877 37.1066 40.3118 37.3632 40.1648L38.9105 39.2702C39.1026 39.1593 39.2709 39.0115 39.4055 38.8353C39.5402 38.6591 39.6387 38.458 39.6952 38.2435C39.7536 38.0303 39.7687 37.8076 39.7398 37.5885C39.7108 37.3693 39.6383 37.1582 39.5265 36.9675C39.5013 36.9308 39.4878 36.8874 39.4878 36.8428C39.4878 36.7983 39.5013 36.7548 39.5265 36.7182C40.0442 36.0836 40.4576 35.3707 40.7512 34.6062C40.7651 34.565 40.7919 34.5293 40.8274 34.5042C40.863 34.4792 40.9057 34.4661 40.9492 34.4668C41.3959 34.4649 41.8238 34.2866 42.1397 33.9707C42.4556 33.6548 42.6339 33.2269 42.6358 32.7802V30.9908C42.6282 30.5511 42.4491 30.1318 42.1368 29.8222C41.8245 29.5126 41.4036 29.3373 40.9638 29.3335ZM5.13317 10.8095C5.13317 10.615 5.21043 10.4285 5.34796 10.291C5.48549 10.1534 5.67201 10.0762 5.8665 10.0762H36.1752C36.3697 10.0762 36.5562 10.1534 36.6937 10.291C36.8312 10.4285 36.9085 10.615 36.9085 10.8095V13.0095H5.13317V10.8095ZM5.37517 29.6342C5.34339 29.6342 5.31192 29.6279 5.28256 29.6157C5.2532 29.6036 5.22652 29.5858 5.20405 29.5633C5.18158 29.5408 5.16375 29.5141 5.15159 29.4848C5.13943 29.4554 5.13317 29.4239 5.13317 29.3922V14.4762H36.9085V23.4668C36.5615 23.3747 36.1941 23.3962 35.8601 23.5281C35.5262 23.6601 35.2434 23.8956 35.0532 24.2002C35.0303 24.2363 34.9971 24.2648 34.9579 24.2818C34.9186 24.2988 34.8752 24.3036 34.8332 24.2955C34.027 24.1635 33.2047 24.1635 32.3985 24.2955C32.3565 24.3047 32.3126 24.3004 32.2731 24.2833C32.2337 24.2662 32.2006 24.2371 32.1785 24.2002C32.0683 24.0079 31.9212 23.8394 31.7456 23.7042C31.57 23.5691 31.3695 23.47 31.1554 23.4128C30.9414 23.3555 30.7181 23.3412 30.4985 23.3706C30.2789 23.4 30.0673 23.4726 29.8758 23.5842L28.3285 24.4788C28.1359 24.5872 27.9671 24.7333 27.8322 24.9085C27.6974 25.0836 27.5993 25.2842 27.5438 25.4982C27.4266 25.9305 27.4845 26.3916 27.7052 26.7815C27.7319 26.8162 27.7464 26.8587 27.7464 26.9025C27.7464 26.9463 27.7319 26.9888 27.7052 27.0235C27.1858 27.6596 26.7723 28.3752 26.4805 29.1428C26.4656 29.1834 26.4386 29.2185 26.4033 29.2434C26.3679 29.2683 26.3258 29.2818 26.2825 29.2822C25.9233 29.2827 25.5738 29.3983 25.2852 29.6122L5.37517 29.6342ZM24.9332 33.8142H16.1332L16.8665 31.1008H24.5665V32.7802C24.5712 33.1559 24.7001 33.5194 24.9332 33.8142ZM13.6985 35.2808H26.7518C26.9195 35.6189 27.1106 35.9448 27.3238 36.2562H12.1512C12.2896 35.9648 12.5077 35.7186 12.7802 35.546C13.0528 35.3734 13.3686 35.2815 13.6912 35.2808H13.6985ZM41.1838 32.7802C41.1838 32.8385 41.1607 32.8945 41.1194 32.9357C41.0781 32.977 41.0222 33.0002 40.9638 33.0002C40.6222 33.001 40.2889 33.1051 40.0075 33.2988C39.7261 33.4925 39.5099 33.7667 39.3872 34.0855C39.1528 34.7038 38.821 35.2806 38.4045 35.7942C38.1897 36.0595 38.0601 36.3835 38.0326 36.7237C38.0051 37.0639 38.0811 37.4045 38.2505 37.7008C38.2623 37.7261 38.2684 37.7536 38.2684 37.7815C38.2684 37.8094 38.2623 37.8369 38.2505 37.8622C38.2441 37.8913 38.2317 37.9187 38.214 37.9427C38.1963 37.9668 38.1738 37.9868 38.1478 38.0015L36.6225 38.8668C36.597 38.881 36.569 38.89 36.54 38.8932C36.5111 38.8965 36.4817 38.8939 36.4538 38.8857C36.4258 38.8775 36.3997 38.8639 36.3771 38.8455C36.3544 38.8272 36.3356 38.8045 36.3218 38.7788C36.1484 38.4833 35.8895 38.2473 35.5792 38.102C35.2689 37.9566 34.9219 37.9088 34.5838 37.9648C33.9383 38.0748 33.2787 38.0748 32.6332 37.9648C32.2944 37.9095 31.9468 37.9584 31.6364 38.1051C31.326 38.2518 31.0675 38.4893 30.8952 38.7862C30.8647 38.8353 30.8167 38.871 30.7608 38.886C30.7049 38.901 30.6455 38.8942 30.5945 38.8668L29.0472 37.9722C29.0212 37.9574 28.9987 37.9374 28.981 37.9134C28.9633 37.8894 28.9509 37.862 28.9445 37.8328C28.9327 37.8076 28.9266 37.78 28.9266 37.7522C28.9266 37.7243 28.9327 37.6968 28.9445 37.6715C29.112 37.3746 29.1868 37.0344 29.1593 36.6946C29.1319 36.3548 29.0034 36.031 28.7905 35.7648C28.3702 35.2526 28.0359 34.6755 27.8005 34.0562C27.6775 33.7458 27.4644 33.4793 27.1886 33.2911C26.9128 33.1029 26.587 33.0016 26.2532 33.0002C26.1948 33.0002 26.1389 32.977 26.0976 32.9357C26.0563 32.8945 26.0332 32.8385 26.0332 32.7802V30.9908C26.0321 30.9617 26.0371 30.9326 26.0478 30.9054C26.0585 30.8783 26.0747 30.8536 26.0953 30.833C26.116 30.8124 26.1406 30.7962 26.1678 30.7855C26.1949 30.7748 26.224 30.7698 26.2532 30.7708C26.5937 30.7695 26.9259 30.6651 27.2061 30.4714C27.4862 30.2777 27.7011 30.0037 27.8225 29.6855C28.0562 29.0653 28.3907 28.488 28.8125 27.9768C29.0254 27.7106 29.1539 27.3868 29.1813 27.0471C29.2088 26.7073 29.134 26.3671 28.9665 26.0702C28.9546 26.0437 28.9484 26.0149 28.9484 25.9858C28.9484 25.9568 28.9546 25.928 28.9665 25.9015C28.9725 25.8731 28.9848 25.8465 29.0026 25.8236C29.0204 25.8008 29.0432 25.7823 29.0692 25.7695L30.6165 24.8748C30.6525 24.8648 30.6905 24.8648 30.7265 24.8748C30.7632 24.8753 30.7992 24.8849 30.8312 24.9029C30.8632 24.9208 30.8903 24.9465 30.9098 24.9775C31.083 25.2737 31.3416 25.5106 31.6517 25.6572C31.9619 25.8037 32.3091 25.8531 32.6478 25.7988C33.2934 25.6889 33.9529 25.6889 34.5985 25.7988C34.9395 25.8449 35.2864 25.7869 35.5939 25.6325C35.9014 25.4781 36.1551 25.2345 36.3218 24.9335C36.3362 24.9093 36.3552 24.8882 36.3777 24.8714C36.4003 24.8546 36.4259 24.8424 36.4532 24.8356C36.4805 24.8288 36.5088 24.8275 36.5366 24.8317C36.5644 24.8359 36.5911 24.8456 36.6152 24.8602L38.1625 25.7548C38.1885 25.7676 38.2113 25.7861 38.2291 25.809C38.2469 25.8318 38.2592 25.8585 38.2652 25.8868C38.2771 25.9133 38.2833 25.9421 38.2833 25.9712C38.2833 26.0002 38.2771 26.029 38.2652 26.0555C38.0964 26.3507 38.0208 26.6901 38.0482 27.029C38.0757 27.3679 38.205 27.6907 38.4192 27.9548C38.8358 28.471 39.1676 29.0502 39.4018 29.6708C39.5174 29.995 39.7286 30.2764 40.0075 30.478C40.2863 30.6797 40.6198 30.792 40.9638 30.8002C40.993 30.7991 41.0221 30.8041 41.0492 30.8148C41.0764 30.8255 41.101 30.8417 41.1217 30.8623C41.1423 30.883 41.1585 30.9076 41.1692 30.9348C41.1799 30.9619 41.1849 30.991 41.1838 31.0202V32.7802Z" fill="#EF7A0E"/>
<path d="M33.6081 28.556C32.9497 28.556 32.306 28.7513 31.7585 29.1171C31.211 29.483 30.7842 30.0029 30.5322 30.6113C30.2803 31.2196 30.2143 31.8891 30.3428 32.5349C30.4712 33.1807 30.7883 33.7739 31.2539 34.2396C31.7196 34.7052 32.3128 35.0223 32.9586 35.1507C33.6044 35.2792 34.2739 35.2133 34.8822 34.9613C35.4906 34.7093 36.0106 34.2825 36.3764 33.735C36.7422 33.1875 36.9375 32.5438 36.9375 31.8854C36.9375 31.0024 36.5867 30.1555 35.9623 29.5312C35.338 28.9068 34.4911 28.556 33.6081 28.556ZM33.6081 33.748C33.2397 33.748 32.8796 33.6388 32.5733 33.4341C32.267 33.2294 32.0282 32.9385 31.8873 32.5982C31.7463 32.2578 31.7094 31.8833 31.7813 31.522C31.8531 31.1607 32.0305 30.8288 32.291 30.5683C32.5515 30.3078 32.8834 30.1304 33.2448 30.0585C33.6061 29.9866 33.9806 30.0235 34.321 30.1645C34.6613 30.3055 34.9522 30.5442 35.1569 30.8505C35.3616 31.1568 35.4708 31.517 35.4708 31.8854C35.4669 32.3768 35.269 32.8468 34.9201 33.193C34.5712 33.5391 34.0996 33.7334 33.6081 33.7334V33.748Z" fill="#EF7A0E"/>
</g>
<defs>
<clipPath id="clip0_2277_1133">
<rect width="44" height="44" fill="white"/>
</clipPath>
</defs>
</svg>
