<svg width="44" height="44" viewBox="0 0 44 44" fill="none" xmlns="http://www.w3.org/2000/svg">
<path d="M10.75 13.3227H5.375V17.5074H10.75V13.3227ZM9.40625 16.1125H6.71875V14.7176H9.40625V16.1125ZM10.75 18.9023H5.375V23.087H10.75V18.9023ZM9.40625 21.6921H6.71875V20.2972H9.40625V21.6921ZM8.0625 24.4819C5.83591 24.4819 4.03125 26.3553 4.03125 28.6666C4.03125 30.978 5.83591 32.8513 8.0625 32.8513C10.2891 32.8513 12.0938 30.978 12.0938 28.6666C12.0938 26.3553 10.2891 24.4819 8.0625 24.4819ZM8.0625 31.4564C6.58034 31.4564 5.375 30.2052 5.375 28.6666C5.375 27.128 6.58034 25.8768 8.0625 25.8768C9.54466 25.8768 10.75 27.128 10.75 28.6666C10.75 30.2052 9.54466 31.4564 8.0625 31.4564ZM29.0868 17.0136L30.0368 17.9998L27.3493 20.7896L26.3993 19.8034L29.0868 17.0136ZM41.6562 6.34821H38.6023L38.1136 5.63332C37.5882 5.08791 37 4.82647 36 5.12484L35.5 5.32593L33.7159 6.34821H1.34375C0.602 6.34821 0 6.97313 0 7.74311V38.4309C0 39.2009 0.602 39.8258 1.34375 39.8258H41.6562C42.398 39.8258 43 39.2009 43 38.4309V7.74311C43 6.97313 42.398 6.34821 41.6562 6.34821ZM21.5 20.2972V25.8768H26.875L37.625 14.7176V32.8513H14.7812V13.3227H28.2188L21.5 20.2972ZM22.8438 21.2834L25.925 24.4819H22.8438V21.2834ZM27.0712 23.6994L23.5962 20.0922L36.6477 6.85576L38.1136 7.74311L40.5568 9.39128L27.0712 23.6994ZM0.977273 38.4309V7.74311H34.2045L29.5625 11.9278H13.4375V34.2462H38.9688V13.3227L41.6562 10.3258L42 38.4309H21.5H0.977273Z" fill="#EF7A0E"/>
</svg>
