<svg width="44" height="44" viewBox="0 0 44 44" fill="none" xmlns="http://www.w3.org/2000/svg">
<path d="M0.776493 40.1509H31.0597C31.4891 40.1509 31.8362 39.8031 31.8362 39.3744C31.8362 38.945 31.4891 38.5979 31.0597 38.5979H1.55299V7.53821C1.55299 7.10959 1.20589 6.76172 0.776493 6.76172C0.347093 6.76172 0 7.10959 0 7.53821V39.3744C0 39.8023 0.347093 40.1509 0.776493 40.1509Z" fill="#EF7A0E"/>
<path d="M5.04725 36.2682H10.8709C11.3003 36.2682 11.6474 35.9204 11.6474 35.4917V13.5558C11.6474 13.1272 11.3003 12.7793 10.8709 12.7793H5.04725C4.61784 12.7793 4.27075 13.1272 4.27075 13.5558V35.4917C4.27075 35.9196 4.61784 36.2682 5.04725 36.2682ZM5.82374 14.3323H10.0945V34.7152H5.82374V14.3323Z" fill="#EF7A0E"/>
<path d="M12.8116 36.2684H18.6353C19.0648 36.2684 19.4118 35.9206 19.4118 35.4919V18.215C19.4118 17.7863 19.0648 17.4385 18.6353 17.4385H12.8116C12.3822 17.4385 12.0352 17.7863 12.0352 18.215V35.4919C12.0352 35.9198 12.3822 36.2684 12.8116 36.2684ZM13.5881 18.9915H17.8589V34.7155H13.5881V18.9915Z" fill="#EF7A0E"/>
<path d="M20.577 36.2683H26.4007C26.8301 36.2683 27.1772 35.9205 27.1772 35.4918V23.4562C27.1772 23.0268 26.8301 22.6797 26.4007 22.6797H20.577C20.1476 22.6797 19.8005 23.0268 19.8005 23.4562V35.4918C19.8005 35.9197 20.1476 36.2683 20.577 36.2683ZM21.3535 24.2327H25.6242V34.7153H21.3535V24.2327Z" fill="#EF7A0E"/>
<path d="M34.9421 28.1154C34.9421 27.686 34.595 27.3389 34.1656 27.3389H28.3419C27.9125 27.3389 27.5654 27.686 27.5654 28.1154V35.492C27.5654 35.9207 27.9125 36.2685 28.3419 36.2685H34.1656C34.595 36.2685 34.9421 35.9207 34.9421 35.492V28.1154ZM33.3891 34.7156H29.1184V28.8919H33.3891V34.7156Z" fill="#EF7A0E"/>
<path d="M23.4889 19.9618C25.5225 19.9618 27.1772 18.3071 27.1772 16.2735C27.1772 15.3751 26.8418 14.5621 26.306 13.9215L29.2885 10.647C29.6496 10.8753 30.0487 11.0477 30.4773 11.1401V17.5237C28.8148 17.8816 27.5655 19.3593 27.5655 21.1266C27.5655 23.1602 29.2202 24.8149 31.2538 24.8149C33.2875 24.8149 34.9422 23.1602 34.9422 21.1266C34.9422 20.6553 34.8451 20.208 34.6836 19.7933L37.965 18.1239C38.6033 18.6573 39.4155 18.992 40.3116 18.992C42.3452 18.992 44 17.3373 44 15.3037C44 13.27 42.3452 11.6153 40.3116 11.6153C38.278 11.6153 36.6233 13.27 36.6233 15.3037C36.6233 15.869 36.7615 16.3985 36.9898 16.8768L33.8232 18.4888C33.3364 18.0144 32.7191 17.6727 32.0303 17.5244V11.1409C33.6928 10.7829 34.9422 9.30525 34.9422 7.53795C34.9422 5.50432 33.2875 3.84961 31.2538 3.84961C29.2202 3.84961 27.5655 5.50432 27.5655 7.53795C27.5655 8.28572 27.7922 8.9799 28.1766 9.56227L25.0807 12.9602C24.5969 12.7265 24.0612 12.5844 23.4889 12.5844C21.4552 12.5844 19.8005 14.2391 19.8005 16.2727C19.8005 18.3064 21.4552 19.9618 23.4889 19.9618ZM40.3116 13.1675C41.4896 13.1675 42.447 14.1249 42.447 15.3029C42.447 16.4808 41.4896 17.4382 40.3116 17.4382C39.1337 17.4382 38.1763 16.4808 38.1763 15.3029C38.1763 14.1249 39.1337 13.1675 40.3116 13.1675ZM33.3892 21.1266C33.3892 22.3053 32.4325 23.2619 31.2538 23.2619C30.0751 23.2619 29.1185 22.3053 29.1185 21.1266C29.1185 19.9486 30.0751 18.9912 31.2538 18.9912C32.4325 18.9912 33.3892 19.9479 33.3892 21.1266ZM31.2538 5.4026C32.4325 5.4026 33.3892 6.36001 33.3892 7.53795C33.3892 8.71589 32.4325 9.67331 31.2538 9.67331C30.0751 9.67331 29.1185 8.71589 29.1185 7.53795C29.1185 6.36001 30.0751 5.4026 31.2538 5.4026ZM23.4889 14.1381C24.6676 14.1381 25.6242 15.0956 25.6242 16.2735C25.6242 17.4514 24.6676 18.4089 23.4889 18.4089C22.3109 18.4089 21.3535 17.4514 21.3535 16.2735C21.3535 15.0956 22.3109 14.1381 23.4889 14.1381Z" fill="#EF7A0E"/>
</svg>
