<svg width="44" height="44" viewBox="0 0 44 44" fill="none" xmlns="http://www.w3.org/2000/svg">
<g clip-path="url(#clip0_2285_1905)">
<path d="M33.7823 36.7214H28.9862C28.8131 36.7214 28.6717 36.5801 28.6717 36.4069V35.2394C28.6717 35.0664 28.5302 34.9249 28.3572 34.9249H21.6461C21.473 34.9249 21.3315 35.0664 21.3315 35.2394V36.4069C21.3315 36.5801 21.19 36.7214 21.0169 36.7214H17.4113C17.2382 36.7214 17.0967 36.8628 17.0967 37.0358V38.3864C17.0967 38.5594 17.2382 38.7009 17.4113 38.7009H33.7821C33.9551 38.7009 34.0966 38.5594 34.0966 38.3864V37.0358C34.0968 36.8632 33.9553 36.7214 33.7823 36.7214Z" fill="#EF7A0E"/>
<path d="M41.8403 5.14563H7.61631C6.42557 5.14563 5.45689 6.11442 5.45689 7.30538C5.45689 7.30538 5.45689 11.4235 5.45689 12.9385C5.45689 13.6832 5.40163 13.7885 5.90123 13.7885C6.16656 13.7885 6.46042 13.7885 6.75794 13.7885C7.17719 13.7885 7.09119 13.6832 7.09119 12.9246C7.09119 11.413 7.09119 7.30538 7.09119 7.30538C7.09119 7.02074 7.33178 6.78015 7.61631 6.78015H41.8403C42.1247 6.78015 42.3653 7.02074 42.3653 7.30538V28.3901H17.9657C17.9657 28.3901 17.1058 28.3885 17.1058 29.5005C17.1058 30.1598 17.1058 31.4783 17.1058 32.1378C17.1058 33.2482 17.9936 33.2482 17.9936 33.2482H41.8403C43.0309 33.2482 43.9999 32.2796 43.9999 31.0888V7.30538C43.9999 6.11453 43.0311 5.14563 41.8403 5.14563ZM24.7284 31.3836C24.1907 31.3836 23.7551 30.9479 23.7551 30.4106C23.7551 29.8732 24.1907 29.4373 24.7284 29.4373C25.2655 29.4373 25.7013 29.8732 25.7013 30.4106C25.7013 30.9479 25.2655 31.3836 24.7284 31.3836Z" fill="#EF7A0E"/>
<path d="M13.7745 15.7179H1.39371C0.624998 15.7179 0 16.343 0 17.1117V37.461C0 38.2296 0.624998 38.8549 1.39371 38.8549H13.7745C14.5427 38.8549 15.1682 38.2296 15.1682 37.461V17.1117C15.1682 16.343 14.5427 15.7179 13.7745 15.7179ZM6.05689 17.1395H9.11119C9.2569 17.1395 9.3753 17.2575 9.3753 17.4037C9.3753 17.5495 9.25701 17.6677 9.11119 17.6677H6.05689C5.91096 17.6677 5.79288 17.5495 5.79288 17.4037C5.79288 17.2575 5.91096 17.1395 6.05689 17.1395ZM7.56556 37.8759C7.16717 37.8759 6.84424 37.553 6.84424 37.1546C6.84424 36.7562 7.16717 36.4333 7.56556 36.4333C7.96395 36.4333 8.28688 36.7562 8.28688 37.1546C8.28688 37.553 7.96395 37.8759 7.56556 37.8759ZM13.9707 35.7559C13.9707 35.9419 13.8218 36.094 13.64 36.094H1.52854C1.34665 36.094 1.19784 35.9419 1.19784 35.7559V18.8464C1.19784 18.6604 1.34676 18.5084 1.52854 18.5084H13.64C13.8219 18.5084 13.9707 18.6606 13.9707 18.8464V35.7559Z" fill="#EF7A0E"/>
</g>
<defs>
<clipPath id="clip0_2285_1905">
<rect width="44" height="44" fill="white"/>
</clipPath>
</defs>
</svg>
